<?xml version="1.0" encoding="utf-8"?>
<!-- Generator: Adobe Illustrator 18.0.0, SVG Export Plug-In . SVG Version: 6.00 Build 0)  -->
<!DOCTYPE svg PUBLIC "-//W3C//DTD SVG 1.1//EN" "http://www.w3.org/Graphics/SVG/1.1/DTD/svg11.dtd">
<svg version="1.1" id="Layer_1" xmlns="http://www.w3.org/2000/svg" xmlns:xlink="http://www.w3.org/1999/xlink" x="0px" y="0px"
	 viewBox="0 0 612 792" enable-background="new 0 0 612 792" xml:space="preserve">
<path stroke="#000000" stroke-width="9" stroke-miterlimit="10" d="M288,272.1c0,0,39.7,0.9,38-38.1c-2-46-1.8-29.7-1.8-29.7
	C326,172.3,278,174,278,174h-79l-16-17h120c0,0,25-1,34,34s0,65,0,65s-7,21-30,27s-56.3,4.5-56.3,4.5l16.7-14.5l22.5-1"/>
<path stroke="#000000" stroke-width="7" stroke-miterlimit="10" d="M329.2,227.5c-0.1,1.7-5.5,23.7-5.2,22.1
	c9.7-50.7-48.7-47.5-48.7-47.5h-53.8l-14-15h81.2C288.7,187.2,331,187.2,329.2,227.5z"/>
<polygon stroke="#020202" stroke-width="7" stroke-miterlimit="10" points="200,199 215,214.3 215,321.3 200,346 "/>
<path fill="#FAFAFD" stroke="#FFFFFF" stroke-width="0.25" stroke-miterlimit="10" d="M316.4,161.1c0,0,27.3,27.4,23.1,69.5
	c-3.6,35.9-20.4,41.7-20.4,41.7s-17.4,13.2-64.3,10.8l10.1-8.9c0,0,41.4,5.3,56.4-17.5C341,226.8,328.4,175.6,316.4,161.1z"/>
<polygon fill="#FDFDFE" stroke="#FFFFFF" stroke-width="2" stroke-miterlimit="10" points="207.5,208.9 207.5,320 213.5,313 
	213.5,215 "/>
</svg>
